<svg width="50" height="50" viewBox="0 0 50 50" fill="none" xmlns="http://www.w3.org/2000/svg">
<path d="M30.2083 6.24954C28.827 6.24954 27.5022 6.79827 26.5255 7.77502C25.5487 8.75178 25 10.0765 25 11.4579C25 12.8392 25.5487 14.164 26.5255 15.1407C27.5022 16.1175 28.827 16.6662 30.2083 16.6662C31.5897 16.6662 32.9144 16.1175 33.8912 15.1407C34.8679 14.164 35.4167 12.8392 35.4167 11.4579C35.4167 10.0765 34.8679 8.75178 33.8912 7.77502C32.9144 6.79827 31.5897 6.24954 30.2083 6.24954ZM20.8333 11.4579C20.833 9.86214 21.24 8.29274 22.0158 6.89829C22.7916 5.50383 23.9105 4.33047 25.2665 3.48932C26.6225 2.64816 28.1708 2.16706 29.7648 2.09156C31.3587 2.01605 32.9455 2.34866 34.375 3.05787C35.8043 2.3495 37.3908 2.01757 38.9842 2.09349C40.5776 2.16942 42.1253 2.65068 43.4808 3.49173C44.8363 4.33278 45.9548 5.50581 46.7304 6.89981C47.5059 8.2938 47.913 9.86264 47.913 11.4579C47.913 13.0531 47.5059 14.6219 46.7304 16.0159C45.9548 17.4099 44.8363 18.583 43.4808 19.424C42.1253 20.2651 40.5776 20.7463 38.9842 20.8222C37.3908 20.8982 35.8043 20.5662 34.375 19.8579C32.9455 20.5671 31.3587 20.8997 29.7648 20.8242C28.1708 20.7487 26.6225 20.2676 25.2665 19.4264C23.9105 18.5853 22.7916 17.4119 22.0158 16.0175C21.24 14.623 20.833 13.0536 20.8333 11.4579ZM38.0208 16.6412C38.1917 16.6579 38.3653 16.6662 38.5417 16.6662C39.2466 16.6647 39.944 16.5201 40.5914 16.2411C41.2388 15.9621 41.8229 15.5546 42.3082 15.0433C42.7935 14.5319 43.1699 13.9274 43.4147 13.2663C43.6595 12.6052 43.7675 11.9013 43.7322 11.1972C43.6969 10.4931 43.5191 9.80348 43.2094 9.17016C42.8997 8.53683 42.4647 7.97296 41.9307 7.51271C41.3968 7.05245 40.7749 6.7054 40.1028 6.49257C39.4307 6.27974 38.7224 6.20556 38.0208 6.27454C39.0401 7.81107 39.5835 9.61403 39.5833 11.4579C39.5835 13.3017 39.0401 15.1047 38.0208 16.6412ZM17.5729 27.6037C17.2308 27.6028 16.892 27.6693 16.5756 27.7994C16.2592 27.9296 15.9716 28.1207 15.7292 28.362L11.4583 32.6329V40.6245H23.1812L35.2708 37.6037L42.6292 34.462C42.8798 34.3266 43.0716 34.1034 43.1678 33.8352C43.264 33.567 43.2578 33.2728 43.1503 33.0089C43.0429 32.7451 42.8419 32.5301 42.5858 32.4054C42.3296 32.2806 42.0365 32.2548 41.7625 32.3329L41.7208 32.3433L28.3625 35.4162H20.8333V31.2495H27.3437C27.8272 31.2495 28.2909 31.0575 28.6327 30.7156C28.9746 30.3738 29.1667 29.9101 29.1667 29.4266C29.1667 28.9432 28.9746 28.4795 28.6327 28.1376C28.2909 27.7958 27.8272 27.6037 27.3437 27.6037H17.5729ZM33.3063 30.0037L40.7062 28.3016C41.4944 28.0944 42.3195 28.0705 43.1184 28.2318C43.9172 28.3932 44.6684 28.7354 45.3143 29.2323C45.9602 29.7292 46.4837 30.3675 46.8446 31.0982C47.2054 31.8289 47.394 32.6325 47.3958 33.4475C47.395 34.4367 47.119 35.4062 46.5988 36.2476C46.0786 37.0891 45.3346 37.7692 44.45 38.212L44.3937 38.2412L36.6021 41.5641L23.6937 44.7912H0V29.687H8.5125L12.7875 25.412C13.4174 24.7843 14.1647 24.2868 14.9869 23.9479C15.809 23.609 16.6899 23.4354 17.5792 23.437H27.3437C28.179 23.4369 29.0051 23.6115 29.7689 23.9496C30.5327 24.2877 31.2174 24.7819 31.7789 25.4003C32.3404 26.0187 32.7663 26.7477 33.0294 27.5405C33.2924 28.3333 33.3867 29.1723 33.3063 30.0037ZM7.29167 33.8537H4.16667V40.6245H7.29167V33.8537Z" fill="#292929"/>
</svg>
