<svg width="50" height="50" viewBox="0 0 50 50" fill="none" xmlns="http://www.w3.org/2000/svg">
<g clip-path="url(#clip0_477_15)">
<mask id="path-1-inside-1_477_15" fill="white">
<path fill-rule="evenodd" clip-rule="evenodd" d="M15.3335 28.8643C15.2893 28.6876 15.1766 28.5356 15.0204 28.4418C14.8641 28.3481 14.677 28.3202 14.5002 28.3643H10.1773C9.0862 28.3529 8.00183 28.5363 6.97521 28.906C6.85608 28.9246 6.74564 28.9797 6.65909 29.0636C6.57254 29.1475 6.51412 29.2562 6.49188 29.3747C6.47876 29.4536 6.48088 29.5342 6.49813 29.6122C6.50814 29.691 6.53413 29.767 6.57453 29.8354C6.61492 29.9038 6.66886 29.9632 6.73303 30.01C6.79721 30.0568 6.87027 30.0901 6.94774 30.1076C7.02521 30.1252 7.10545 30.1268 7.18355 30.1122C8.03026 30.1929 8.86654 30.3597 9.67938 30.6102C10.0808 30.6435 10.4829 30.6435 10.8856 30.6102C11.2981 30.6074 11.7072 30.5657 12.1127 30.4852C13.0474 30.2963 13.9551 30.0185 14.8356 29.6518C15.0006 29.6033 15.1423 29.4965 15.2343 29.3512C15.3263 29.2059 15.3623 29.0321 15.3356 28.8622M33.071 34.3331C31.9374 34.0827 30.7677 34.0403 29.619 34.2081C29.619 33.7497 29.5148 33.2914 29.4523 32.8331C29.3481 32.0039 29.2023 31.1914 29.0773 30.3602H31.6148C31.6931 30.3718 31.7729 30.3675 31.8494 30.3473C31.926 30.3271 31.9976 30.2916 32.06 30.2429C32.1223 30.1942 32.1741 30.1333 32.2122 30.0639C32.2503 29.9945 32.2738 29.9181 32.2815 29.8393C32.2929 29.76 32.2884 29.6793 32.2684 29.6017C32.2483 29.5242 32.213 29.4514 32.1645 29.3876C32.1161 29.3238 32.0554 29.2703 31.986 29.2302C31.9167 29.1901 31.8401 29.1641 31.7606 29.1539L29.3085 28.9664H28.8919C28.8919 28.4039 28.7252 27.8643 28.6627 27.3039C28.6792 27.214 28.6757 27.1216 28.6525 27.0331C28.6294 26.9447 28.5871 26.8624 28.5287 26.7921C28.4703 26.7218 28.3972 26.6651 28.3145 26.6261C28.2318 26.5871 28.1416 26.5667 28.0502 26.5664C27.9586 26.5664 27.8682 26.5866 27.7852 26.6255C27.7023 26.6643 27.6289 26.7209 27.5703 26.7913C27.5116 26.8617 27.4692 26.944 27.4459 27.0326C27.4227 27.1212 27.4191 27.2138 27.4356 27.3039C27.4356 27.9289 27.4356 28.5518 27.3315 29.1747C25.714 29.4308 24.1891 30.0972 22.9023 31.1102C22.4076 31.5357 22.0662 32.1119 21.9307 32.7502C21.7952 33.3885 21.8731 34.0537 22.1523 34.6435C22.4856 35.3727 23.069 35.956 23.7981 36.2872C24.7102 36.6733 25.6989 36.8444 26.6877 36.7872H27.5815C27.5815 37.1622 27.5815 37.5352 27.7273 37.8893C27.8731 38.7206 28.0606 39.5518 28.2273 40.3622H27.1231C25.608 40.1883 24.1623 39.6304 22.9231 38.7414C22.7791 38.6323 22.5983 38.5836 22.419 38.6054C22.2396 38.6272 22.0758 38.718 21.9621 38.8584C21.8485 38.9988 21.7939 39.178 21.81 39.3579C21.826 39.5379 21.9114 39.7045 22.0481 39.8227C23.4845 40.9034 25.1629 41.6171 26.9377 41.9018C27.5398 42.006 28.144 42.0477 28.7252 42.0893L29.0377 43.3789C29.0504 43.4694 29.081 43.5565 29.1278 43.6351C29.1745 43.7136 29.2365 43.782 29.31 43.8364C29.3835 43.8907 29.4672 43.9298 29.556 43.9514C29.6448 43.973 29.737 43.9767 29.8273 43.9622C30.0123 43.9316 30.1775 43.8288 30.2869 43.6765C30.3962 43.5242 30.4407 43.3348 30.4106 43.1497V42.0664C31.0703 42.0386 31.7217 41.9421 32.3648 41.7768C33.64 41.4338 34.7793 40.7082 35.6294 39.6977C35.9946 39.2609 36.223 38.7262 36.286 38.1604C36.3489 37.5946 36.2438 37.0228 35.9835 36.5164C35.7027 35.9501 35.2928 35.4575 34.787 35.0783C34.2812 34.6991 33.6934 34.4439 33.071 34.3331ZM26.5627 34.5206C26.0267 34.5804 25.4844 34.5451 24.9606 34.4164C24.7695 34.3841 24.5873 34.3117 24.4261 34.204C24.2649 34.0962 24.1283 33.9556 24.0252 33.7914C23.6294 33.0206 24.0252 32.4393 24.7544 31.9622C25.5221 31.4317 26.3715 31.0306 27.269 30.7747V34.456L26.5627 34.5206ZM33.4877 38.6789C32.9618 39.1915 32.3295 39.582 31.6356 39.8227C31.1356 39.9893 30.6231 40.1004 30.0981 40.156C30.0981 39.281 30.0981 38.4081 29.9315 37.5352V36.4518C30.5898 36.4018 31.2481 36.4018 31.9065 36.4518C32.3185 36.4285 32.7291 36.5168 33.0951 36.7075C33.461 36.8982 33.7687 37.1841 33.9856 37.5352C34.0273 37.9727 33.7981 38.3685 33.4856 38.7206L33.4877 38.6789Z"/>
</mask>
<path fill-rule="evenodd" clip-rule="evenodd" d="M15.3335 28.8643C15.2893 28.6876 15.1766 28.5356 15.0204 28.4418C14.8641 28.3481 14.677 28.3202 14.5002 28.3643H10.1773C9.0862 28.3529 8.00183 28.5363 6.97521 28.906C6.85608 28.9246 6.74564 28.9797 6.65909 29.0636C6.57254 29.1475 6.51412 29.2562 6.49188 29.3747C6.47876 29.4536 6.48088 29.5342 6.49813 29.6122C6.50814 29.691 6.53413 29.767 6.57453 29.8354C6.61492 29.9038 6.66886 29.9632 6.73303 30.01C6.79721 30.0568 6.87027 30.0901 6.94774 30.1076C7.02521 30.1252 7.10545 30.1268 7.18355 30.1122C8.03026 30.1929 8.86654 30.3597 9.67938 30.6102C10.0808 30.6435 10.4829 30.6435 10.8856 30.6102C11.2981 30.6074 11.7072 30.5657 12.1127 30.4852C13.0474 30.2963 13.9551 30.0185 14.8356 29.6518C15.0006 29.6033 15.1423 29.4965 15.2343 29.3512C15.3263 29.2059 15.3623 29.0321 15.3356 28.8622M33.071 34.3331C31.9374 34.0827 30.7677 34.0403 29.619 34.2081C29.619 33.7497 29.5148 33.2914 29.4523 32.8331C29.3481 32.0039 29.2023 31.1914 29.0773 30.3602H31.6148C31.6931 30.3718 31.7729 30.3675 31.8494 30.3473C31.926 30.3271 31.9976 30.2916 32.06 30.2429C32.1223 30.1942 32.1741 30.1333 32.2122 30.0639C32.2503 29.9945 32.2738 29.9181 32.2815 29.8393C32.2929 29.76 32.2884 29.6793 32.2684 29.6017C32.2483 29.5242 32.213 29.4514 32.1645 29.3876C32.1161 29.3238 32.0554 29.2703 31.986 29.2302C31.9167 29.1901 31.8401 29.1641 31.7606 29.1539L29.3085 28.9664H28.8919C28.8919 28.4039 28.7252 27.8643 28.6627 27.3039C28.6792 27.214 28.6757 27.1216 28.6525 27.0331C28.6294 26.9447 28.5871 26.8624 28.5287 26.7921C28.4703 26.7218 28.3972 26.6651 28.3145 26.6261C28.2318 26.5871 28.1416 26.5667 28.0502 26.5664C27.9586 26.5664 27.8682 26.5866 27.7852 26.6255C27.7023 26.6643 27.6289 26.7209 27.5703 26.7913C27.5116 26.8617 27.4692 26.944 27.4459 27.0326C27.4227 27.1212 27.4191 27.2138 27.4356 27.3039C27.4356 27.9289 27.4356 28.5518 27.3315 29.1747C25.714 29.4308 24.1891 30.0972 22.9023 31.1102C22.4076 31.5357 22.0662 32.1119 21.9307 32.7502C21.7952 33.3885 21.8731 34.0537 22.1523 34.6435C22.4856 35.3727 23.069 35.956 23.7981 36.2872C24.7102 36.6733 25.6989 36.8444 26.6877 36.7872H27.5815C27.5815 37.1622 27.5815 37.5352 27.7273 37.8893C27.8731 38.7206 28.0606 39.5518 28.2273 40.3622H27.1231C25.608 40.1883 24.1623 39.6304 22.9231 38.7414C22.7791 38.6323 22.5983 38.5836 22.419 38.6054C22.2396 38.6272 22.0758 38.718 21.9621 38.8584C21.8485 38.9988 21.7939 39.178 21.81 39.3579C21.826 39.5379 21.9114 39.7045 22.0481 39.8227C23.4845 40.9034 25.1629 41.6171 26.9377 41.9018C27.5398 42.006 28.144 42.0477 28.7252 42.0893L29.0377 43.3789C29.0504 43.4694 29.081 43.5565 29.1278 43.6351C29.1745 43.7136 29.2365 43.782 29.31 43.8364C29.3835 43.8907 29.4672 43.9298 29.556 43.9514C29.6448 43.973 29.737 43.9767 29.8273 43.9622C30.0123 43.9316 30.1775 43.8288 30.2869 43.6765C30.3962 43.5242 30.4407 43.3348 30.4106 43.1497V42.0664C31.0703 42.0386 31.7217 41.9421 32.3648 41.7768C33.64 41.4338 34.7793 40.7082 35.6294 39.6977C35.9946 39.2609 36.223 38.7262 36.286 38.1604C36.3489 37.5946 36.2438 37.0228 35.9835 36.5164C35.7027 35.9501 35.2928 35.4575 34.787 35.0783C34.2812 34.6991 33.6934 34.4439 33.071 34.3331ZM26.5627 34.5206C26.0267 34.5804 25.4844 34.5451 24.9606 34.4164C24.7695 34.3841 24.5873 34.3117 24.4261 34.204C24.2649 34.0962 24.1283 33.9556 24.0252 33.7914C23.6294 33.0206 24.0252 32.4393 24.7544 31.9622C25.5221 31.4317 26.3715 31.0306 27.269 30.7747V34.456L26.5627 34.5206ZM33.4877 38.6789C32.9618 39.1915 32.3295 39.582 31.6356 39.8227C31.1356 39.9893 30.6231 40.1004 30.0981 40.156C30.0981 39.281 30.0981 38.4081 29.9315 37.5352V36.4518C30.5898 36.4018 31.2481 36.4018 31.9065 36.4518C32.3185 36.4285 32.7291 36.5168 33.0951 36.7075C33.461 36.8982 33.7687 37.1841 33.9856 37.5352C34.0273 37.9727 33.7981 38.3685 33.4856 38.7206L33.4877 38.6789Z" fill="#292929"/>
<path d="M14.5002 28.3643V30.4477H14.7562L15.0046 30.3857L14.5002 28.3643ZM10.1773 28.3643L10.1554 30.4475L10.1664 30.4477H10.1773V28.3643ZM6.97521 28.906L7.29661 30.9644L7.49354 30.9336L7.68107 30.8661L6.97521 28.906ZM6.49188 29.3747L4.44429 28.9905L4.44034 29.0115L4.43681 29.0327L6.49188 29.3747ZM6.49813 29.6122L8.56486 29.3498L8.55289 29.2555L8.53236 29.1626L6.49813 29.6122ZM7.18355 30.1122L7.38103 28.0383L7.08989 28.0106L6.80236 28.0641L7.18355 30.1122ZM9.67938 30.6102L9.06592 32.6011L9.28182 32.6676L9.50696 32.6863L9.67938 30.6102ZM10.8856 30.6102L10.8716 28.5269L10.7926 28.5274L10.7138 28.5339L10.8856 30.6102ZM12.1127 30.4852L12.5186 32.5286L12.5254 32.5272L12.1127 30.4852ZM14.8356 29.6518L14.2482 27.653L14.1394 27.685L14.0348 27.7286L14.8356 29.6518ZM33.071 34.3331L32.6217 36.3674L32.6636 36.3766L32.7059 36.3842L33.071 34.3331ZM29.619 34.2081H27.5356V36.6178L29.92 36.2695L29.619 34.2081ZM29.4523 32.8331L27.3852 33.0928L27.3866 33.1037L27.3881 33.1146L29.4523 32.8331ZM29.0773 30.3602V28.2768H26.6573L27.0171 30.67L29.0773 30.3602ZM31.6148 30.3602L31.9221 28.2996L31.7693 28.2768H31.6148V30.3602ZM32.2815 29.8393L30.2194 29.5421L30.2125 29.5904L30.2078 29.6389L32.2815 29.8393ZM31.7606 29.1539L32.0267 27.0876L31.9732 27.0807L31.9195 27.0766L31.7606 29.1539ZM29.3085 28.9664L29.4674 26.8891L29.3881 26.8831H29.3085V28.9664ZM28.8919 28.9664H26.8085V31.0497H28.8919V28.9664ZM28.6627 27.3039L26.6134 26.9289L26.5583 27.2303L26.5922 27.5348L28.6627 27.3039ZM28.0502 26.5664L28.0578 24.4831L28.0495 24.4831L28.0502 26.5664ZM27.4356 27.3039H29.519V27.1149L29.4849 26.9289L27.4356 27.3039ZM27.3315 29.1747L27.6573 31.2324L29.1389 30.9979L29.3863 29.5184L27.3315 29.1747ZM22.9023 31.1102L21.6136 29.4732L21.5781 29.5012L21.5438 29.5307L22.9023 31.1102ZM22.1523 34.6435L24.047 33.7773L24.0412 33.7647L24.0353 33.7521L22.1523 34.6435ZM23.7981 36.2872L22.9364 38.184L22.9611 38.1952L22.9861 38.2058L23.7981 36.2872ZM26.6877 36.7872V34.7039H26.6276L26.5676 34.7074L26.6877 36.7872ZM27.5815 36.7872H29.6648V34.7039H27.5815V36.7872ZM27.7273 37.8893L29.7793 37.5293L29.7401 37.3059L29.6537 37.0961L27.7273 37.8893ZM28.2273 40.3622V42.4456H30.7827L30.2679 39.9426L28.2273 40.3622ZM27.1231 40.3622L26.8855 42.432L27.0039 42.4456H27.1231V40.3622ZM22.9231 38.7414L21.6654 40.4023L21.6869 40.4185L21.7088 40.4342L22.9231 38.7414ZM22.0481 39.8227L20.6861 41.3991L20.7393 41.4451L20.7956 41.4874L22.0481 39.8227ZM26.9377 41.9018L27.2929 39.849L27.2803 39.8468L27.2677 39.8448L26.9377 41.9018ZM28.7252 42.0893L30.7499 41.5987L30.3916 40.1201L28.8742 40.0113L28.7252 42.0893ZM29.0377 43.3789L31.1008 43.0895L31.0866 42.9879L31.0624 42.8883L29.0377 43.3789ZM29.8273 43.9622L30.1568 46.0194L30.1679 46.0175L29.8273 43.9622ZM30.4106 43.1497H28.3273V43.318L28.3543 43.4841L30.4106 43.1497ZM30.4106 42.0664L30.323 39.9849L28.3273 40.0689V42.0664H30.4106ZM32.3648 41.7768L32.8834 43.7946L32.8947 43.7917L32.906 43.7886L32.3648 41.7768ZM35.6294 39.6977L37.2236 41.0388L37.2276 41.0341L35.6294 39.6977ZM35.9835 36.5164L34.1171 37.4421L34.1238 37.4554L34.1306 37.4686L35.9835 36.5164ZM26.5627 34.5206L26.373 32.4459L26.3523 32.4478L26.3317 32.4501L26.5627 34.5206ZM24.9606 34.4164L25.4578 32.3933L25.3835 32.375L25.3081 32.3623L24.9606 34.4164ZM24.0252 33.7914L22.1719 34.7431L22.2128 34.8227L22.2604 34.8986L24.0252 33.7914ZM24.7544 31.9622L25.895 33.7056L25.9171 33.6911L25.9388 33.6761L24.7544 31.9622ZM27.269 30.7747H29.3523V28.0146L26.6979 28.7712L27.269 30.7747ZM27.269 34.456L27.4587 36.5307L29.3523 36.3575V34.456H27.269ZM33.4877 38.6789L35.5684 38.7829L35.8333 33.4829L32.0335 37.1871L33.4877 38.6789ZM31.6356 39.8227L32.2944 41.7991L32.3063 41.7951L32.3182 41.791L31.6356 39.8227ZM30.0981 40.156H28.0148V42.4714L30.3174 42.2278L30.0981 40.156ZM29.9315 37.5352H27.8481V37.7323L27.8851 37.9259L29.9315 37.5352ZM29.9315 36.4518L29.7737 34.3745L27.8481 34.5207V36.4518H29.9315ZM31.9065 36.4518L31.7487 38.5292L31.8864 38.5396L32.0243 38.5318L31.9065 36.4518ZM33.9856 37.5352L36.0596 37.3376L36.0135 36.8536L35.7579 36.44L33.9856 37.5352ZM33.4856 38.7206L31.4049 38.6166L31.1091 44.5366L35.0437 40.1035L33.4856 38.7206ZM15.3335 28.8643L17.3544 28.3581C17.176 27.6457 16.722 27.0333 16.0922 26.6554L15.0204 28.4418L13.9485 30.2283C13.6313 30.0379 13.4025 29.7294 13.3126 29.3705L15.3335 28.8643ZM15.0204 28.4418L16.0922 26.6554C15.4625 26.2775 14.7084 26.1652 13.9959 26.343L14.5002 28.3643L15.0046 30.3857C14.6456 30.4753 14.2657 30.4186 13.9485 30.2283L15.0204 28.4418ZM14.5002 28.3643V26.281H10.1773V28.3643V30.4477H14.5002V28.3643ZM10.1773 28.3643L10.1992 26.2811C8.86011 26.267 7.52929 26.4922 6.26935 26.9459L6.97521 28.906L7.68107 30.8661C8.47437 30.5804 9.31229 30.4387 10.1554 30.4475L10.1773 28.3643ZM6.97521 28.906L6.65382 26.8476C6.10922 26.9326 5.60436 27.1843 5.20868 27.5681L6.65909 29.0636L8.10949 30.5591C7.88693 30.775 7.60294 30.9166 7.29661 30.9644L6.97521 28.906ZM6.65909 29.0636L5.20868 27.5681C4.81301 27.9518 4.54597 28.4487 4.44429 28.9905L6.49188 29.3747L8.53946 29.759C8.48227 30.0638 8.33206 30.3433 8.10949 30.5591L6.65909 29.0636ZM6.49188 29.3747L4.43681 29.0327C4.37995 29.3743 4.38915 29.7237 4.4639 30.0619L6.49813 29.6122L8.53236 29.1626C8.57261 29.3447 8.57756 29.5328 8.54694 29.7168L6.49188 29.3747ZM6.49813 29.6122L4.43139 29.8747C4.47714 30.2349 4.59598 30.582 4.78064 30.8947L6.57453 29.8354L8.36841 28.776C8.47228 28.9519 8.53913 29.1472 8.56486 29.3498L6.49813 29.6122ZM6.57453 29.8354L4.78064 30.8947C4.96529 31.2074 5.21187 31.4791 5.50524 31.6931L6.73303 30.01L7.96082 28.3269C8.12585 28.4473 8.26455 28.6001 8.36841 28.776L6.57453 29.8354ZM6.73303 30.01L5.50524 31.6931C5.79863 31.9071 6.13262 32.059 6.48676 32.1393L6.94774 30.1076L7.40872 28.0759C7.60792 28.1211 7.79579 28.2065 7.96082 28.3269L6.73303 30.01ZM6.94774 30.1076L6.48676 32.1393C6.84088 32.2197 7.2077 32.2269 7.56473 32.1604L7.18355 30.1122L6.80236 28.0641C7.0032 28.0267 7.20954 28.0307 7.40872 28.0759L6.94774 30.1076ZM7.18355 30.1122L6.98606 32.1862C7.69166 32.2534 8.38856 32.3924 9.06592 32.6011L9.67938 30.6102L10.2928 28.6192C9.34453 28.327 8.36887 28.1324 7.38103 28.0383L7.18355 30.1122ZM9.67938 30.6102L9.50696 32.6863C10.0233 32.7292 10.5405 32.7292 11.0575 32.6864L10.8856 30.6102L10.7138 28.5339C10.4252 28.5578 10.1382 28.5578 9.8518 28.534L9.67938 30.6102ZM10.8856 30.6102L10.8997 32.6934C11.444 32.6898 11.9843 32.6347 12.5186 32.5286L12.1127 30.4852L11.7068 28.4417C11.43 28.4967 11.1522 28.525 10.8716 28.5269L10.8856 30.6102ZM12.1127 30.4852L12.5254 32.5272C13.5931 32.3114 14.6307 31.9939 15.6365 31.5751L14.8356 29.6518L14.0348 27.7286C13.2794 28.0431 12.5018 28.2811 11.7001 28.4431L12.1127 30.4852ZM14.8356 29.6518L15.4231 31.6506C16.0733 31.4595 16.6318 31.0384 16.9944 30.4658L15.2343 29.3512L13.4742 28.2366C13.6528 27.9546 13.9279 27.7472 14.2482 27.653L14.8356 29.6518ZM15.2343 29.3512L16.9944 30.4658C17.357 29.8932 17.4989 29.2082 17.3937 28.5387L15.3356 28.8622L13.2776 29.1858C13.2257 28.856 13.2956 28.5186 13.4742 28.2366L15.2343 29.3512ZM33.071 34.3331L33.5204 32.2988C32.1404 31.9939 30.7164 31.9424 29.3179 32.1466L29.619 34.2081L29.92 36.2695C30.8191 36.1382 31.7345 36.1714 32.6217 36.3674L33.071 34.3331ZM29.619 34.2081H31.7023C31.7023 33.5638 31.5448 32.7593 31.5165 32.5516L29.4523 32.8331L27.3881 33.1146C27.4847 33.8235 27.5356 33.9357 27.5356 34.2081H29.619ZM29.4523 32.8331L31.5194 32.5734C31.4119 31.718 31.2498 30.7973 31.1375 30.0504L29.0773 30.3602L27.0171 30.67C27.1548 31.5855 27.2843 32.2899 27.3852 33.0928L29.4523 32.8331ZM29.0773 30.3602V32.4435H31.6148V30.3602V28.2768H29.0773V30.3602ZM31.6148 30.3602L31.3075 32.4207C31.6653 32.4741 32.0303 32.4541 32.3802 32.3619L31.8494 30.3473L31.3187 28.3327C31.5155 28.2808 31.7208 28.2696 31.9221 28.2996L31.6148 30.3602ZM31.8494 30.3473L32.3802 32.3619C32.73 32.2697 33.0574 32.1073 33.3426 31.8846L32.06 30.2429L30.7774 28.6012C30.9377 28.4759 31.1219 28.3845 31.3187 28.3327L31.8494 30.3473ZM32.06 30.2429L33.3426 31.8846C33.6277 31.6619 33.8645 31.3834 34.0385 31.0663L32.2122 30.0639L30.3859 29.0615C30.4838 28.8831 30.617 28.7265 30.7774 28.6012L32.06 30.2429ZM32.2122 30.0639L34.0385 31.0663C34.2126 30.7491 34.3203 30.3999 34.3551 30.0398L32.2815 29.8393L30.2078 29.6389C30.2274 29.4363 30.288 29.2399 30.3859 29.0615L32.2122 30.0639ZM32.2815 29.8393L34.3435 30.1366C34.3943 29.7838 34.3745 29.4246 34.2852 29.0796L32.2684 29.6017L30.2515 30.1238C30.2024 29.934 30.1915 29.7362 30.2194 29.5421L32.2815 29.8393ZM32.2684 29.6017L34.2852 29.0796C34.1959 28.7346 34.0389 28.4109 33.8233 28.1271L32.1645 29.3876L30.5057 30.6481C30.3871 30.4919 30.3007 30.3137 30.2515 30.1238L32.2684 29.6017ZM32.1645 29.3876L33.8233 28.1271C33.6077 27.8434 33.3378 27.6054 33.0294 27.4269L31.986 29.2302L30.9427 31.0334C30.7729 30.9352 30.6244 30.8042 30.5057 30.6481L32.1645 29.3876ZM31.986 29.2302L33.0294 27.4269C32.7209 27.2485 32.3801 27.1331 32.0267 27.0876L31.7606 29.1539L31.4946 31.2202C31.3001 31.1951 31.1125 31.1317 30.9427 31.0334L31.986 29.2302ZM31.7606 29.1539L31.9195 27.0766L29.4674 26.8891L29.3085 28.9664L29.1497 31.0437L31.6018 31.2312L31.7606 29.1539ZM29.3085 28.9664V26.8831H28.8919V28.9664V31.0497H29.3085V28.9664ZM28.8919 28.9664H30.9752C30.9752 28.4912 30.905 28.065 30.8512 27.7658C30.7882 27.4151 30.7542 27.2613 30.7332 27.073L28.6627 27.3039L26.5922 27.5348C26.6337 27.9069 26.7143 28.3031 26.7503 28.503C26.7954 28.7543 26.8085 28.8791 26.8085 28.9664H28.8919ZM28.6627 27.3039L30.712 27.6789C30.7833 27.2893 30.7683 26.8887 30.668 26.5055L28.6525 27.0331L26.6371 27.5607C26.5831 27.3544 26.575 27.1387 26.6134 26.9289L28.6627 27.3039ZM28.6525 27.0331L30.668 26.5055C30.5676 26.1223 30.3845 25.7658 30.1314 25.461L28.5287 26.7921L26.926 28.1231C26.7898 27.959 26.6911 27.7671 26.6371 27.5607L28.6525 27.0331ZM28.5287 26.7921L30.1314 25.461C29.8783 25.1563 29.5615 24.9108 29.2032 24.7418L28.3145 26.6261L27.4258 28.5104C27.2329 28.4194 27.0623 28.2872 26.926 28.1231L28.5287 26.7921ZM28.3145 26.6261L29.2032 24.7418C28.8449 24.5729 28.454 24.4845 28.0578 24.4831L28.0502 26.5664L28.0426 28.6497C27.8293 28.6489 27.6187 28.6014 27.4258 28.5104L28.3145 26.6261ZM28.0502 26.5664L28.0495 24.4831C27.6526 24.4832 27.2606 24.5706 26.9013 24.739L27.7852 26.6255L28.6692 28.512C28.4757 28.6026 28.2646 28.6497 28.0509 28.6497L28.0502 26.5664ZM27.7852 26.6255L26.9013 24.739C26.5419 24.9074 26.2239 25.1527 25.9698 25.4576L27.5703 26.7913L29.1707 28.125C29.0339 28.2892 28.8627 28.4213 28.6692 28.512L27.7852 26.6255ZM27.5703 26.7913L25.9698 25.4576C25.7157 25.7625 25.5318 26.1195 25.431 26.5033L27.4459 27.0326L29.4609 27.5619C29.4066 27.7686 29.3076 27.9608 29.1707 28.125L27.5703 26.7913ZM27.4459 27.0326L25.431 26.5033C25.3301 26.8872 25.3149 27.2885 25.3863 27.6789L27.4356 27.3039L29.4849 26.9289C29.5234 27.1391 29.5152 27.3552 29.4609 27.5619L27.4459 27.0326ZM27.4356 27.3039H25.3523C25.3523 27.9567 25.3476 28.4068 25.2767 28.8311L27.3315 29.1747L29.3863 29.5184C29.5236 28.6969 29.519 27.9012 29.519 27.3039H27.4356ZM27.3315 29.1747L27.0057 27.117C25.0365 27.4288 23.1801 28.24 21.6136 29.4732L22.9023 31.1102L24.191 32.7471C25.198 31.9543 26.3914 31.4329 27.6573 31.2324L27.3315 29.1747ZM22.9023 31.1102L21.5438 29.5307C20.7031 30.2538 20.1231 31.2329 19.8928 32.3176L21.9307 32.7502L23.9687 33.1828C24.0094 32.9908 24.1121 32.8176 24.2608 32.6896L22.9023 31.1102ZM21.9307 32.7502L19.8928 32.3176C19.6626 33.4023 19.7948 34.5326 20.2693 35.5349L22.1523 34.6435L24.0353 33.7521C23.9513 33.5747 23.9279 33.3747 23.9687 33.1828L21.9307 32.7502ZM22.1523 34.6435L20.2576 35.5097C20.7989 36.6937 21.748 37.6441 22.9364 38.184L23.7981 36.2872L24.6598 34.3905C24.3899 34.2678 24.1724 34.0516 24.047 33.7773L22.1523 34.6435ZM23.7981 36.2872L22.9861 38.2058C24.1925 38.7164 25.5001 38.9426 26.8078 38.8671L26.6877 36.7872L26.5676 34.7074C25.8978 34.7461 25.228 34.6302 24.6101 34.3687L23.7981 36.2872ZM26.6877 36.7872V38.8706H27.5815V36.7872V34.7039H26.6877V36.7872ZM27.5815 36.7872H25.4981C25.4981 37.0939 25.4728 37.8857 25.8009 38.6826L27.7273 37.8893L29.6537 37.0961C29.6799 37.1598 29.6777 37.1895 29.6729 37.1411C29.6704 37.1161 29.6679 37.0777 29.6665 37.0169C29.6649 36.9534 29.6648 36.8853 29.6648 36.7872H27.5815ZM27.7273 37.8893L25.6753 38.2493C25.828 39.12 26.0309 40.0243 26.1867 40.7819L28.2273 40.3622L30.2679 39.9426C30.0904 39.0794 29.9182 38.3212 29.7793 37.5293L27.7273 37.8893ZM28.2273 40.3622V38.2789H27.1231V40.3622V42.4456H28.2273V40.3622ZM27.1231 40.3622L27.3608 38.2925C26.198 38.159 25.0885 37.7309 24.1375 37.0486L22.9231 38.7414L21.7088 40.4342C23.2361 41.5299 25.018 42.2176 26.8855 42.432L27.1231 40.3622ZM22.9231 38.7414L24.1808 37.0806C23.6056 36.6449 22.8835 36.4501 22.1672 36.5373L22.419 38.6054L22.6707 40.6735C22.3131 40.717 21.9526 40.6197 21.6654 40.4023L22.9231 38.7414ZM22.419 38.6054L22.1672 36.5373C21.4509 36.6245 20.7966 36.9869 20.3427 37.5478L21.9621 38.8584L23.5816 40.169C23.355 40.449 23.0283 40.6299 22.6707 40.6735L22.419 38.6054ZM21.9621 38.8584L20.3427 37.5478C19.8887 38.1088 19.6708 38.8242 19.7349 39.543L21.81 39.3579L23.8851 39.1729C23.9171 39.5317 23.8082 39.8889 23.5816 40.169L21.9621 38.8584ZM21.81 39.3579L19.7349 39.543C19.799 40.2617 20.1401 40.9273 20.6861 41.3991L22.0481 39.8227L23.4102 38.2462C23.6828 38.4818 23.8531 38.8141 23.8851 39.1729L21.81 39.3579ZM22.0481 39.8227L20.7956 41.4874C22.5029 42.772 24.498 43.6204 26.6077 43.9589L26.9377 41.9018L27.2677 39.8448C25.8278 39.6138 24.466 39.0347 23.3007 38.1579L22.0481 39.8227ZM26.9377 41.9018L26.5825 43.9547C27.3055 44.0797 28.0164 44.1272 28.5763 44.1673L28.7252 42.0893L28.8742 40.0113C28.2715 39.9681 27.7741 39.9322 27.2929 39.849L26.9377 41.9018ZM28.7252 42.0893L26.7005 42.58L27.013 43.8696L29.0377 43.3789L31.0624 42.8883L30.7499 41.5987L28.7252 42.0893ZM29.0377 43.3789L26.9746 43.6683C27.0258 44.0332 27.1492 44.3841 27.3376 44.7007L29.1278 43.6351L30.9179 42.5694C31.0129 42.7289 31.0751 42.9057 31.1008 43.0895L29.0377 43.3789ZM29.1278 43.6351L27.3376 44.7007C27.5261 45.0173 27.7758 45.2931 28.0721 45.512L29.31 43.8364L30.548 42.1607C30.6972 42.271 30.823 42.4099 30.9179 42.5694L29.1278 43.6351ZM29.31 43.8364L28.0721 45.512C28.3684 45.7309 28.7054 45.8885 29.0634 45.9757L29.556 43.9514L30.0486 41.9271C30.2289 41.971 30.3987 42.0504 30.548 42.1607L29.31 43.8364ZM29.556 43.9514L29.0634 45.9757C29.4213 46.0628 29.7931 46.0776 30.1568 46.0193L29.8273 43.9622L29.4977 41.9051C29.681 41.8758 29.8683 41.8833 30.0486 41.9271L29.556 43.9514ZM29.8273 43.9622L30.1679 46.0175C30.8969 45.8967 31.5483 45.4918 31.9792 44.8916L30.2869 43.6765L28.5945 42.4615C28.8068 42.1659 29.1276 41.9664 29.4867 41.9069L29.8273 43.9622ZM30.2869 43.6765L31.9792 44.8916C32.4102 44.2913 32.5856 43.5447 32.4669 42.8153L30.4106 43.1497L28.3543 43.4841C28.2959 43.1249 28.3823 42.7572 28.5945 42.4615L30.2869 43.6765ZM30.4106 43.1497H32.494V42.0664H30.4106H28.3273V43.1497H30.4106ZM30.4106 42.0664L30.4983 44.1479C31.3043 44.114 32.1001 43.9959 32.8834 43.7946L32.3648 41.7768L31.8462 39.7591C31.3434 39.8883 30.8364 39.9633 30.323 39.9849L30.4106 42.0664ZM32.3648 41.7768L32.906 43.7886C34.5925 43.335 36.0994 42.3752 37.2236 41.0388L35.6294 39.6977L34.0351 38.3565C33.4593 39.0411 32.6874 39.5326 31.8236 39.765L32.3648 41.7768ZM35.6294 39.6977L37.2276 41.0341C37.8555 40.2832 38.2482 39.3638 38.3565 38.3909L36.286 38.1604L34.2154 37.9299C34.1977 38.0886 34.1337 38.2387 34.0312 38.3612L35.6294 39.6977ZM36.286 38.1604L38.3565 38.3909C38.4648 37.418 38.2839 36.4348 37.8365 35.5642L35.9835 36.5164L34.1306 37.4686C34.2036 37.6107 34.2331 37.7712 34.2154 37.9299L36.286 38.1604ZM35.9835 36.5164L37.8499 35.5907C37.4243 34.7325 36.8032 33.986 36.0366 33.4113L34.787 35.0783L33.5374 36.7453C33.7825 36.929 33.981 37.1676 34.1171 37.4421L35.9835 36.5164ZM34.787 35.0783L36.0366 33.4113C35.27 32.8367 34.3794 32.4499 33.4361 32.282L33.071 34.3331L32.7059 36.3842C33.0075 36.4378 33.2923 36.5615 33.5374 36.7453L34.787 35.0783ZM26.5627 34.5206L26.3317 32.4501C26.0393 32.4827 25.7435 32.4635 25.4578 32.3933L24.9606 34.4164L24.4634 36.4395C25.2252 36.6268 26.0141 36.678 26.7937 36.5911L26.5627 34.5206ZM24.9606 34.4164L25.3081 32.3623C25.4066 32.3789 25.5004 32.4162 25.5835 32.4717L24.4261 34.204L23.2687 35.9362C23.6741 36.2071 24.1323 36.3892 24.6132 36.4706L24.9606 34.4164ZM24.4261 34.204L25.5835 32.4717C25.6665 32.5272 25.7369 32.5996 25.79 32.6842L24.0252 33.7914L22.2604 34.8986C22.5196 35.3117 22.8632 35.6653 23.2687 35.9362L24.4261 34.204ZM24.0252 33.7914L25.8785 32.8397C25.8935 32.869 25.9436 32.9813 25.9511 33.16C25.9589 33.346 25.9168 33.517 25.8558 33.6478C25.8005 33.7663 25.7456 33.8188 25.7512 33.8132C25.7571 33.8072 25.7975 33.7694 25.895 33.7056L24.7544 31.9622L23.6137 30.2189C23.1168 30.5441 22.4603 31.0709 22.0801 31.8856C21.6376 32.8337 21.7134 33.8501 22.1719 34.7431L24.0252 33.7914ZM24.7544 31.9622L25.9388 33.6761C26.5193 33.275 27.1615 32.9717 27.8401 32.7783L27.269 30.7747L26.6979 28.7712C25.5815 29.0894 24.5249 29.5884 23.57 30.2483L24.7544 31.9622ZM27.269 30.7747H25.1856V34.456H27.269H29.3523V30.7747H27.269ZM27.269 34.456L27.0792 32.3813L26.373 32.4459L26.5627 34.5206L26.7524 36.5952L27.4587 36.5307L27.269 34.456ZM33.4877 38.6789L32.0335 37.1871C31.7267 37.4862 31.3578 37.714 30.9531 37.8543L31.6356 39.8227L32.3182 41.791C33.3012 41.4501 34.197 40.8969 34.942 40.1707L33.4877 38.6789ZM31.6356 39.8227L30.9768 37.8462C30.6197 37.9653 30.2546 38.0445 29.8789 38.0842L30.0981 40.156L30.3174 42.2278C30.9916 42.1564 31.6515 42.0134 32.2944 41.7991L31.6356 39.8227ZM30.0981 40.156H32.1815C32.1815 39.3121 32.1875 38.2425 31.9778 37.1444L29.9315 37.5352L27.8851 37.9259C28.0088 38.5737 28.0148 39.2499 28.0148 40.156H30.0981ZM29.9315 37.5352H32.0148V36.4518H29.9315H27.8481V37.5352H29.9315ZM29.9315 36.4518L30.0892 38.5292C30.6425 38.4872 31.1954 38.4872 31.7487 38.5292L31.9065 36.4518L32.0642 34.3745C31.3009 34.3165 30.5371 34.3165 29.7737 34.3745L29.9315 36.4518ZM31.9065 36.4518L32.0243 38.5318C32.0618 38.5297 32.0991 38.5377 32.1324 38.5551L33.0951 36.7075L34.0577 34.8599C33.3591 34.4959 32.5751 34.3273 31.7886 34.3718L31.9065 36.4518ZM33.0951 36.7075L32.1324 38.5551C32.1657 38.5724 32.1936 38.5984 32.2134 38.6303L33.9856 37.5352L35.7579 36.44C35.3438 35.7698 34.7564 35.2239 34.0577 34.8599L33.0951 36.7075ZM33.9856 37.5352L31.9117 37.7327C31.8909 37.5144 31.9462 37.3533 31.9766 37.2875C32 37.2367 32.0032 37.2523 31.9275 37.3376L33.4856 38.7206L35.0437 40.1035C35.4747 39.6179 36.185 38.6545 36.0596 37.3376L33.9856 37.5352ZM33.4856 38.7206L35.5664 38.8246L35.5684 38.7829L33.4877 38.6789L31.407 38.5749L31.4049 38.6166L33.4856 38.7206Z" fill="#292929" mask="url(#path-1-inside-1_477_15)"/>
<mask id="path-3-inside-2_477_15" fill="white">
<path fill-rule="evenodd" clip-rule="evenodd" d="M42.8669 33.583C42.5353 32.4807 42.0364 31.4359 41.3878 30.4851C40.6135 29.3889 39.7738 28.3404 38.8732 27.3455C39.7107 27.033 40.4086 26.4371 40.8482 25.6601C41.1325 25.1258 41.2933 24.5345 41.3185 23.9298C41.3437 23.3251 41.2329 22.7224 40.994 22.1663C41.3176 22.0274 41.6162 21.8469 41.8899 21.6246C42.5603 20.8941 42.9476 19.9481 42.982 18.9572C43.0163 17.9663 42.6955 16.9957 42.0774 16.2205C42.5642 15.9554 42.9596 15.5494 43.2117 15.0557C43.4637 14.562 43.5607 14.0036 43.4899 13.4538C43.2308 12.7648 42.8253 12.1402 42.3012 11.6233C41.7771 11.1064 41.147 10.7095 40.4544 10.4601C40.0486 10.2618 39.6225 10.1081 39.1836 10.0017C38.7572 9.87672 38.3211 9.79338 37.8753 9.75172C36.5419 9.73366 35.2107 9.78227 33.8815 9.89755L32.5107 10.0226C32.3857 9.94632 32.253 9.88347 32.1149 9.83505L30.1815 9.33505C29.6399 9.33505 29.0982 9.10588 28.5378 9.04338C28.1155 9.01114 27.6913 9.01114 27.269 9.04338C26.0534 9.27638 24.8993 9.75874 23.8794 10.4601C21.5711 11.9976 18.7649 14.3267 17.9128 15.0559C17.3086 15.4996 16.5815 15.7538 15.8315 15.783H11.8607C11.7824 15.7773 11.7037 15.7875 11.6295 15.813C11.5552 15.8385 11.4868 15.8787 11.4285 15.9312C11.3701 15.9837 11.323 16.0475 11.2898 16.1187C11.2567 16.1899 11.2383 16.267 11.2357 16.3455C11.2303 16.4263 11.2413 16.5075 11.268 16.584C11.2946 16.6606 11.3364 16.731 11.3908 16.791C11.4453 16.8511 11.5112 16.8996 11.5848 16.9337C11.6584 16.9677 11.738 16.9866 11.819 16.9892C13.4315 17.2038 15.0607 17.2726 16.6857 17.1975C17.4799 17.1151 18.2429 16.8437 18.9107 16.4059C19.7628 15.8434 22.0503 14.1809 24.1711 12.8517C25.1461 12.1017 26.2544 11.5455 27.4357 11.208C27.7135 11.1774 27.9912 11.1774 28.269 11.208C28.7669 11.208 29.2669 11.3955 29.744 11.4788L31.2419 11.9163C31.8253 12.1246 32.2399 12.3517 32.3232 12.7267C32.4065 13.1017 32.1149 13.3309 31.6357 13.6621C31.0833 14.0827 30.4553 14.3932 29.7857 14.5767C29.0343 14.7573 28.2718 14.8753 27.4982 14.9309C27.2314 14.947 26.9817 15.0671 26.8025 15.2654C26.6233 15.4637 26.529 15.7243 26.5399 15.9913C26.5607 16.158 26.5607 16.3246 26.5399 16.4913C26.6533 17.9228 26.2151 19.3434 25.3149 20.4621C24.1649 21.6691 22.6101 22.4095 20.9482 22.5413C20.8576 22.5516 20.77 22.5798 20.6905 22.6243C20.6109 22.6687 20.541 22.7286 20.4848 22.8003C20.4286 22.872 20.3872 22.9542 20.363 23.0421C20.3389 23.1299 20.3324 23.2217 20.344 23.3121C20.3592 23.4706 20.4305 23.6184 20.5451 23.7288C20.6598 23.8392 20.8101 23.905 20.969 23.9142C20.094 25.058 19.2836 26.2226 18.5149 27.4288C17.5774 28.9052 16.7246 30.4302 15.9565 32.0038C15.4037 33.1766 14.9514 34.3941 14.6044 35.6434C14.352 36.5048 14.1845 37.3889 14.1044 38.283C14.041 39.6137 14.2837 40.9413 14.8139 42.1636C15.3441 43.3858 16.1477 44.4701 17.1628 45.333C20.0007 47.8198 23.523 49.3925 27.269 49.8455C31.0369 50.3462 34.8657 49.617 38.1857 47.7663C39.8445 46.7486 41.2085 45.315 42.1425 43.6077C43.0766 41.9005 43.5482 39.9787 43.5107 38.033C43.5415 37.2752 43.4996 36.5161 43.3857 35.7663C43.2558 35.0288 43.084 34.2997 42.8669 33.583ZM39.2878 24.683C39.0134 25.036 38.6328 25.2914 38.2021 25.4115C37.7714 25.5316 37.3135 25.5099 36.8961 25.3496C35.5235 25.2277 34.2054 24.7541 33.069 23.9746C32.7768 23.8079 32.5388 23.5604 32.3836 23.2618C32.2284 22.9633 32.1626 22.6263 32.194 22.2913C32.262 21.9958 32.4056 21.723 32.6107 21.4996L32.7774 21.3767C33.2274 21.6128 33.6926 21.8142 34.1732 21.9809C35.2955 22.3627 36.4618 22.6001 37.644 22.6871C38.3426 22.7246 39.0357 22.683 39.7232 22.5621C39.817 22.9256 39.8264 23.3057 39.7505 23.6733C39.6747 24.0409 39.5178 24.3863 39.2878 24.683ZM40.5544 20.0246C40.273 20.1856 39.9605 20.285 39.6378 20.3163C39.0211 20.3788 38.4044 20.3788 37.7878 20.3163C36.7895 20.2249 35.8014 20.0436 34.8357 19.7746C34.3169 19.6642 33.8082 19.5109 33.3149 19.3163C33.669 19.0059 33.2128 17.883 33.5232 17.2392C33.6426 16.8837 33.8162 16.5573 34.044 16.26C34.8169 16.7038 35.6628 17.0059 36.5399 17.1559C37.8441 17.4188 39.1877 17.4188 40.4919 17.1559L40.7836 17.0517C41.0586 17.4392 41.2294 17.8892 41.2815 18.3621C41.2933 18.6763 41.2338 18.9891 41.1075 19.277C40.9813 19.5649 40.7935 19.8205 40.5544 20.0246ZM37.4794 11.7705L39.5586 12.5392C40.2149 12.7976 40.7857 13.2371 41.2024 13.808C41.3899 14.0788 41.2024 14.3496 40.7232 14.6601L40.0169 15.0351C38.9919 15.3684 37.9128 15.5017 36.8357 15.4309C36.2012 15.384 35.5771 15.2436 34.9836 15.0142C34.9352 14.8907 34.8488 14.7857 34.7368 14.7145C34.6248 14.6434 34.4931 14.6097 34.3607 14.6184L34.1107 14.4517C34.5732 13.8642 34.7815 13.1163 34.694 12.3726C34.6271 12.1051 34.5292 11.8464 34.4024 11.6017C35.4301 11.6059 36.4558 11.6635 37.4794 11.7705ZM36.9586 45.9142C34.0237 47.4552 30.6748 48.0228 27.3961 47.535C24.1658 47.1349 21.1188 45.8136 18.619 43.7288C17.82 43.096 17.1708 42.2944 16.7177 41.3814C16.2646 40.4684 16.0189 39.4666 15.9982 38.4476C16.0376 37.4751 16.1986 36.5113 16.4774 35.5788C16.7565 34.601 17.11 33.651 17.5378 32.7288C18.1947 31.1732 18.9433 29.6621 19.7836 28.1955C20.639 26.7618 21.5687 25.3738 22.569 24.0371C22.5859 23.9547 22.5859 23.8696 22.569 23.7871C24.0718 23.5079 25.456 22.7836 26.5419 21.708C27.744 20.4163 28.4253 18.7288 28.4544 16.9663C29.2344 16.9176 30.0075 16.7919 30.7628 16.5913C31.3461 16.4135 31.901 16.1705 32.4274 15.8621C32.1222 16.2431 31.8699 16.6636 31.6774 17.1121C31.3086 17.9246 31.1565 18.8205 31.2399 19.7121C31.2676 19.9566 31.344 20.1851 31.469 20.3976L31.2815 20.5226C30.9315 20.8559 30.6669 21.2684 30.5128 21.7288C30.2588 22.4048 30.2269 23.1441 30.4217 23.8394C30.6165 24.5347 31.0279 25.1499 31.5961 25.5955C32.9727 26.7213 34.6354 27.442 36.3982 27.6767C36.676 27.6975 36.9537 27.6975 37.2315 27.6767C38.1878 28.9017 39.2065 30.0663 40.0169 31.3559C40.5378 32.1934 40.9315 33.1059 41.1815 34.0601C41.3551 34.742 41.4732 35.4351 41.5357 36.1392C41.5871 36.7906 41.5871 37.442 41.5357 38.0934C41.5008 39.6683 41.0713 41.2094 40.2866 42.5753C39.5018 43.9413 38.387 45.0886 37.044 45.9121L36.9586 45.9142ZM24.2753 6.48713L25.2315 8.33922C25.2705 8.40967 25.3232 8.47162 25.3865 8.52142C25.4497 8.57122 25.5223 8.60788 25.6 8.62923C25.6776 8.65058 25.7587 8.65619 25.8385 8.64574C25.9184 8.63529 25.9953 8.60899 26.0649 8.56838C26.2066 8.48918 26.312 8.3579 26.3587 8.20236C26.4053 8.04681 26.3896 7.87921 26.3149 7.73505L25.6065 6.03088L25.3774 4.82255C25.3774 3.97047 25.3774 3.57672 25.7732 3.47255C26.2878 3.42672 26.8065 3.49755 27.2899 3.68088C28.0711 3.91838 28.8878 4.0163 29.7024 3.97255C30.0857 3.89338 30.4468 3.7545 30.7857 3.55588C31.2003 3.30588 31.6149 2.95172 32.0524 2.66005C32.4899 2.36838 32.344 2.34755 32.5107 2.38922C32.6774 2.43088 32.7815 2.68088 32.9274 2.84755C33.1246 3.14616 33.3392 3.43088 33.5711 3.70172C33.8031 3.95866 34.0732 4.167 34.3815 4.32672C35.4649 4.6038 36.6149 4.44547 37.5836 3.88922C37.9378 3.74338 38.2711 3.57672 38.6044 3.47255H38.8336C38.9169 3.81977 38.9579 4.17325 38.9565 4.53297L38.6649 5.94755L37.8524 7.69338C37.7547 7.84667 37.7197 8.03164 37.7546 8.21002C37.7895 8.3884 37.8916 8.54654 38.0399 8.65172C38.119 8.70298 38.2081 8.73678 38.3013 8.75085C38.3945 8.76492 38.4896 8.75894 38.5804 8.7333C38.6711 8.70767 38.7553 8.66297 38.8273 8.6022C38.8994 8.54142 38.9576 8.46597 38.9982 8.38088L40.1003 6.4663L40.6419 4.6788C40.7748 4.2215 40.8008 3.73976 40.7177 3.27085C40.6346 2.80193 40.4447 2.35842 40.1628 1.97463C39.7486 1.68966 39.2652 1.52182 38.7636 1.48881C38.2619 1.45581 37.7607 1.55888 37.3128 1.78713L35.9836 2.1413C35.7544 2.1413 35.5669 2.30797 35.4003 2.1413C35.2336 1.97463 35.0669 1.7038 34.8794 1.43297C34.6527 1.07371 34.3724 0.751229 34.0482 0.476718C33.7561 0.269442 33.4229 0.127346 33.0711 0.0600512C32.5847 -0.0538415 32.0747 -0.0100643 31.6149 0.185051C31.0662 0.43644 30.5607 0.755885 30.0982 1.14338C29.8565 1.37811 29.5787 1.55866 29.2649 1.68505C28.5674 1.7324 27.8667 1.67624 27.1857 1.51838C26.4927 1.39206 25.7794 1.43494 25.1065 1.64338C24.2107 1.99755 23.4024 2.80588 23.7336 4.9288L24.2753 6.48713Z"/>
</mask>
<path fill-rule="evenodd" clip-rule="evenodd" d="M42.8669 33.583C42.5353 32.4807 42.0364 31.4359 41.3878 30.4851C40.6135 29.3889 39.7738 28.3404 38.8732 27.3455C39.7107 27.033 40.4086 26.4371 40.8482 25.6601C41.1325 25.1258 41.2933 24.5345 41.3185 23.9298C41.3437 23.3251 41.2329 22.7224 40.994 22.1663C41.3176 22.0274 41.6162 21.8469 41.8899 21.6246C42.5603 20.8941 42.9476 19.9481 42.982 18.9572C43.0163 17.9663 42.6955 16.9957 42.0774 16.2205C42.5642 15.9554 42.9596 15.5494 43.2117 15.0557C43.4637 14.562 43.5607 14.0036 43.4899 13.4538C43.2308 12.7648 42.8253 12.1402 42.3012 11.6233C41.7771 11.1064 41.147 10.7095 40.4544 10.4601C40.0486 10.2618 39.6225 10.1081 39.1836 10.0017C38.7572 9.87672 38.3211 9.79338 37.8753 9.75172C36.5419 9.73366 35.2107 9.78227 33.8815 9.89755L32.5107 10.0226C32.3857 9.94632 32.253 9.88347 32.1149 9.83505L30.1815 9.33505C29.6399 9.33505 29.0982 9.10588 28.5378 9.04338C28.1155 9.01114 27.6913 9.01114 27.269 9.04338C26.0534 9.27638 24.8993 9.75874 23.8794 10.4601C21.5711 11.9976 18.7649 14.3267 17.9128 15.0559C17.3086 15.4996 16.5815 15.7538 15.8315 15.783H11.8607C11.7824 15.7773 11.7037 15.7875 11.6295 15.813C11.5552 15.8385 11.4868 15.8787 11.4285 15.9312C11.3701 15.9837 11.323 16.0475 11.2898 16.1187C11.2567 16.1899 11.2383 16.267 11.2357 16.3455C11.2303 16.4263 11.2413 16.5075 11.268 16.584C11.2946 16.6606 11.3364 16.731 11.3908 16.791C11.4453 16.8511 11.5112 16.8996 11.5848 16.9337C11.6584 16.9677 11.738 16.9866 11.819 16.9892C13.4315 17.2038 15.0607 17.2726 16.6857 17.1975C17.4799 17.1151 18.2429 16.8437 18.9107 16.4059C19.7628 15.8434 22.0503 14.1809 24.1711 12.8517C25.1461 12.1017 26.2544 11.5455 27.4357 11.208C27.7135 11.1774 27.9912 11.1774 28.269 11.208C28.7669 11.208 29.2669 11.3955 29.744 11.4788L31.2419 11.9163C31.8253 12.1246 32.2399 12.3517 32.3232 12.7267C32.4065 13.1017 32.1149 13.3309 31.6357 13.6621C31.0833 14.0827 30.4553 14.3932 29.7857 14.5767C29.0343 14.7573 28.2718 14.8753 27.4982 14.9309C27.2314 14.947 26.9817 15.0671 26.8025 15.2654C26.6233 15.4637 26.529 15.7243 26.5399 15.9913C26.5607 16.158 26.5607 16.3246 26.5399 16.4913C26.6533 17.9228 26.2151 19.3434 25.3149 20.4621C24.1649 21.6691 22.6101 22.4095 20.9482 22.5413C20.8576 22.5516 20.77 22.5798 20.6905 22.6243C20.6109 22.6687 20.541 22.7286 20.4848 22.8003C20.4286 22.872 20.3872 22.9542 20.363 23.0421C20.3389 23.1299 20.3324 23.2217 20.344 23.3121C20.3592 23.4706 20.4305 23.6184 20.5451 23.7288C20.6598 23.8392 20.8101 23.905 20.969 23.9142C20.094 25.058 19.2836 26.2226 18.5149 27.4288C17.5774 28.9052 16.7246 30.4302 15.9565 32.0038C15.4037 33.1766 14.9514 34.3941 14.6044 35.6434C14.352 36.5048 14.1845 37.3889 14.1044 38.283C14.041 39.6137 14.2837 40.9413 14.8139 42.1636C15.3441 43.3858 16.1477 44.4701 17.1628 45.333C20.0007 47.8198 23.523 49.3925 27.269 49.8455C31.0369 50.3462 34.8657 49.617 38.1857 47.7663C39.8445 46.7486 41.2085 45.315 42.1425 43.6077C43.0766 41.9005 43.5482 39.9787 43.5107 38.033C43.5415 37.2752 43.4996 36.5161 43.3857 35.7663C43.2558 35.0288 43.084 34.2997 42.8669 33.583ZM39.2878 24.683C39.0134 25.036 38.6328 25.2914 38.2021 25.4115C37.7714 25.5316 37.3135 25.5099 36.8961 25.3496C35.5235 25.2277 34.2054 24.7541 33.069 23.9746C32.7768 23.8079 32.5388 23.5604 32.3836 23.2618C32.2284 22.9633 32.1626 22.6263 32.194 22.2913C32.262 21.9958 32.4056 21.723 32.6107 21.4996L32.7774 21.3767C33.2274 21.6128 33.6926 21.8142 34.1732 21.9809C35.2955 22.3627 36.4618 22.6001 37.644 22.6871C38.3426 22.7246 39.0357 22.683 39.7232 22.5621C39.817 22.9256 39.8264 23.3057 39.7505 23.6733C39.6747 24.0409 39.5178 24.3863 39.2878 24.683ZM40.5544 20.0246C40.273 20.1856 39.9605 20.285 39.6378 20.3163C39.0211 20.3788 38.4044 20.3788 37.7878 20.3163C36.7895 20.2249 35.8014 20.0436 34.8357 19.7746C34.3169 19.6642 33.8082 19.5109 33.3149 19.3163C33.669 19.0059 33.2128 17.883 33.5232 17.2392C33.6426 16.8837 33.8162 16.5573 34.044 16.26C34.8169 16.7038 35.6628 17.0059 36.5399 17.1559C37.8441 17.4188 39.1877 17.4188 40.4919 17.1559L40.7836 17.0517C41.0586 17.4392 41.2294 17.8892 41.2815 18.3621C41.2933 18.6763 41.2338 18.9891 41.1075 19.277C40.9813 19.5649 40.7935 19.8205 40.5544 20.0246ZM37.4794 11.7705L39.5586 12.5392C40.2149 12.7976 40.7857 13.2371 41.2024 13.808C41.3899 14.0788 41.2024 14.3496 40.7232 14.6601L40.0169 15.0351C38.9919 15.3684 37.9128 15.5017 36.8357 15.4309C36.2012 15.384 35.5771 15.2436 34.9836 15.0142C34.9352 14.8907 34.8488 14.7857 34.7368 14.7145C34.6248 14.6434 34.4931 14.6097 34.3607 14.6184L34.1107 14.4517C34.5732 13.8642 34.7815 13.1163 34.694 12.3726C34.6271 12.1051 34.5292 11.8464 34.4024 11.6017C35.4301 11.6059 36.4558 11.6635 37.4794 11.7705ZM36.9586 45.9142C34.0237 47.4552 30.6748 48.0228 27.3961 47.535C24.1658 47.1349 21.1188 45.8136 18.619 43.7288C17.82 43.096 17.1708 42.2944 16.7177 41.3814C16.2646 40.4684 16.0189 39.4666 15.9982 38.4476C16.0376 37.4751 16.1986 36.5113 16.4774 35.5788C16.7565 34.601 17.11 33.651 17.5378 32.7288C18.1947 31.1732 18.9433 29.6621 19.7836 28.1955C20.639 26.7618 21.5687 25.3738 22.569 24.0371C22.5859 23.9547 22.5859 23.8696 22.569 23.7871C24.0718 23.5079 25.456 22.7836 26.5419 21.708C27.744 20.4163 28.4253 18.7288 28.4544 16.9663C29.2344 16.9176 30.0075 16.7919 30.7628 16.5913C31.3461 16.4135 31.901 16.1705 32.4274 15.8621C32.1222 16.2431 31.8699 16.6636 31.6774 17.1121C31.3086 17.9246 31.1565 18.8205 31.2399 19.7121C31.2676 19.9566 31.344 20.1851 31.469 20.3976L31.2815 20.5226C30.9315 20.8559 30.6669 21.2684 30.5128 21.7288C30.2588 22.4048 30.2269 23.1441 30.4217 23.8394C30.6165 24.5347 31.0279 25.1499 31.5961 25.5955C32.9727 26.7213 34.6354 27.442 36.3982 27.6767C36.676 27.6975 36.9537 27.6975 37.2315 27.6767C38.1878 28.9017 39.2065 30.0663 40.0169 31.3559C40.5378 32.1934 40.9315 33.1059 41.1815 34.0601C41.3551 34.742 41.4732 35.4351 41.5357 36.1392C41.5871 36.7906 41.5871 37.442 41.5357 38.0934C41.5008 39.6683 41.0713 41.2094 40.2866 42.5753C39.5018 43.9413 38.387 45.0886 37.044 45.9121L36.9586 45.9142ZM24.2753 6.48713L25.2315 8.33922C25.2705 8.40967 25.3232 8.47162 25.3865 8.52142C25.4497 8.57122 25.5223 8.60788 25.6 8.62923C25.6776 8.65058 25.7587 8.65619 25.8385 8.64574C25.9184 8.63529 25.9953 8.60899 26.0649 8.56838C26.2066 8.48918 26.312 8.3579 26.3587 8.20236C26.4053 8.04681 26.3896 7.87921 26.3149 7.73505L25.6065 6.03088L25.3774 4.82255C25.3774 3.97047 25.3774 3.57672 25.7732 3.47255C26.2878 3.42672 26.8065 3.49755 27.2899 3.68088C28.0711 3.91838 28.8878 4.0163 29.7024 3.97255C30.0857 3.89338 30.4468 3.7545 30.7857 3.55588C31.2003 3.30588 31.6149 2.95172 32.0524 2.66005C32.4899 2.36838 32.344 2.34755 32.5107 2.38922C32.6774 2.43088 32.7815 2.68088 32.9274 2.84755C33.1246 3.14616 33.3392 3.43088 33.5711 3.70172C33.8031 3.95866 34.0732 4.167 34.3815 4.32672C35.4649 4.6038 36.6149 4.44547 37.5836 3.88922C37.9378 3.74338 38.2711 3.57672 38.6044 3.47255H38.8336C38.9169 3.81977 38.9579 4.17325 38.9565 4.53297L38.6649 5.94755L37.8524 7.69338C37.7547 7.84667 37.7197 8.03164 37.7546 8.21002C37.7895 8.3884 37.8916 8.54654 38.0399 8.65172C38.119 8.70298 38.2081 8.73678 38.3013 8.75085C38.3945 8.76492 38.4896 8.75894 38.5804 8.7333C38.6711 8.70767 38.7553 8.66297 38.8273 8.6022C38.8994 8.54142 38.9576 8.46597 38.9982 8.38088L40.1003 6.4663L40.6419 4.6788C40.7748 4.2215 40.8008 3.73976 40.7177 3.27085C40.6346 2.80193 40.4447 2.35842 40.1628 1.97463C39.7486 1.68966 39.2652 1.52182 38.7636 1.48881C38.2619 1.45581 37.7607 1.55888 37.3128 1.78713L35.9836 2.1413C35.7544 2.1413 35.5669 2.30797 35.4003 2.1413C35.2336 1.97463 35.0669 1.7038 34.8794 1.43297C34.6527 1.07371 34.3724 0.751229 34.0482 0.476718C33.7561 0.269442 33.4229 0.127346 33.0711 0.0600512C32.5847 -0.0538415 32.0747 -0.0100643 31.6149 0.185051C31.0662 0.43644 30.5607 0.755885 30.0982 1.14338C29.8565 1.37811 29.5787 1.55866 29.2649 1.68505C28.5674 1.7324 27.8667 1.67624 27.1857 1.51838C26.4927 1.39206 25.7794 1.43494 25.1065 1.64338C24.2107 1.99755 23.4024 2.80588 23.7336 4.9288L24.2753 6.48713Z" fill="#292929" stroke="#292929" stroke-width="4.16667" mask="url(#path-3-inside-2_477_15)"/>
</g>
<defs>
<clipPath id="clip0_477_15">
<rect width="50" height="50" fill="white"/>
</clipPath>
</defs>
</svg>
