<svg width="38" height="38" viewBox="0 0 38 38" fill="none" xmlns="http://www.w3.org/2000/svg">
<path d="M5.29644 18.9033C3.71644 16.1499 2.9531 13.8999 2.4931 11.6199C1.8131 8.24661 3.36977 4.95161 5.9481 2.84827C7.03811 1.95994 8.2881 2.26494 8.9331 3.41994L10.3881 6.03161C11.5414 8.10161 12.1181 9.13494 12.0048 10.2316C11.8898 11.3299 11.1114 12.2233 9.55644 14.0099L5.29644 18.9033ZM5.29644 18.9033C8.49477 24.4799 13.5131 29.5033 19.0964 32.7033L5.29644 18.9033ZM19.0964 32.7033C21.8514 34.2833 24.0998 35.0466 26.3798 35.5066C29.7531 36.1866 33.0481 34.6299 35.1498 32.0516C36.0398 30.9616 35.7348 29.7116 34.5798 29.0666L31.9681 27.6116C29.8981 26.4583 28.8648 25.8816 27.7681 25.9949C26.6698 26.1099 25.7764 26.8883 23.9898 28.4433L19.0964 32.7033ZM18.9998 10.6666H20.4281C21.1014 10.6666 21.4381 10.6666 21.6481 10.8699C21.8564 11.0733 21.8564 11.4016 21.8564 12.0549C21.8564 13.3649 21.8564 14.0199 21.4398 14.4266C21.1198 14.7366 20.6548 14.8099 19.8564 14.8266C19.4481 14.8366 19.2448 14.8416 19.1231 14.9633C19.0014 15.0849 18.9998 15.2783 18.9998 15.6666V17.6116C18.9998 18.2666 18.9998 18.5933 19.2098 18.7966C19.4181 18.9999 19.7548 18.9999 20.4281 18.9999H21.8564M28.9998 10.6666V14.8333V10.6666ZM28.9998 14.8333H26.5714C26.0331 14.8333 25.7631 14.8333 25.5964 14.6699C25.4298 14.5083 25.4298 14.2466 25.4298 13.7216V10.6666M28.9998 14.8333V18.9999V14.8333Z" fill="#292929"/>
<path d="M5.29644 18.9033C3.71644 16.1499 2.9531 13.8999 2.4931 11.6199C1.8131 8.24661 3.36977 4.95161 5.9481 2.84827C7.0381 1.95994 8.2881 2.26494 8.9331 3.41994L10.3881 6.03161C11.5414 8.10161 12.1181 9.13494 12.0048 10.2316C11.8898 11.3299 11.1114 12.2233 9.55644 14.0099L5.29644 18.9033ZM5.29644 18.9033C8.49477 24.4799 13.5131 29.5033 19.0964 32.7033M19.0964 32.7033C21.8514 34.2833 24.0998 35.0466 26.3798 35.5066C29.7531 36.1866 33.0481 34.6299 35.1498 32.0516C36.0398 30.9616 35.7348 29.7116 34.5798 29.0666L31.9681 27.6116C29.8981 26.4583 28.8648 25.8816 27.7681 25.9949C26.6698 26.1099 25.7764 26.8883 23.9898 28.4433L19.0964 32.7033ZM18.9998 10.6666H20.4281C21.1014 10.6666 21.4381 10.6666 21.6481 10.8699C21.8564 11.0733 21.8564 11.4016 21.8564 12.0549C21.8564 13.3649 21.8564 14.0199 21.4398 14.4266C21.1198 14.7366 20.6548 14.8099 19.8564 14.8266C19.4481 14.8366 19.2448 14.8416 19.1231 14.9633C19.0014 15.0849 18.9998 15.2783 18.9998 15.6666V17.6116C18.9998 18.2666 18.9998 18.5933 19.2098 18.7966C19.4181 18.9999 19.7548 18.9999 20.4281 18.9999H21.8564M28.9998 10.6666V14.8333M28.9998 14.8333H26.5714C26.0331 14.8333 25.7631 14.8333 25.5964 14.6699C25.4298 14.5083 25.4298 14.2466 25.4298 13.7216V10.6666M28.9998 14.8333V18.9999" stroke="#292929" stroke-width="3.125" stroke-linecap="round" stroke-linejoin="round"/>
<path d="M15.6665 6.17536C15.8143 6.00869 15.9682 5.84536 16.1282 5.68536C17.2117 4.60571 18.5006 3.75421 19.9188 3.18117C21.337 2.60813 22.8557 2.32519 24.3851 2.34905C25.9145 2.37291 27.4236 2.7031 28.8232 3.3201C30.2228 3.93711 31.4846 4.82841 32.5339 5.94133C33.5832 7.05425 34.3987 8.36621 34.9324 9.79969C35.466 11.2332 35.7069 12.7591 35.6408 14.2872C35.5747 15.8154 35.203 17.3148 34.5476 18.6968C33.8921 20.0789 32.9663 21.3155 31.8248 22.3337" fill="#292929"/>
<path d="M15.6665 6.17536C15.8143 6.00869 15.9682 5.84536 16.1282 5.68536C17.2117 4.60571 18.5006 3.75421 19.9188 3.18117C21.337 2.60813 22.8557 2.32519 24.3851 2.34905C25.9145 2.37291 27.4236 2.7031 28.8232 3.3201C30.2228 3.93711 31.4846 4.82841 32.5339 5.94133C33.5832 7.05425 34.3987 8.36621 34.9324 9.79969C35.466 11.2332 35.7069 12.7591 35.6408 14.2872C35.5747 15.8154 35.203 17.3148 34.5476 18.6968C33.8921 20.0789 32.9663 21.3155 31.8248 22.3337" stroke="#292929" stroke-width="3.125" stroke-linecap="round" stroke-linejoin="round"/>
</svg>
