<svg width="70" height="70" viewBox="0 0 70 70" fill="none" xmlns="http://www.w3.org/2000/svg">
<path fill-rule="evenodd" clip-rule="evenodd" d="M44.9691 16.4587C44.5668 15.816 43.9742 15.3147 43.2737 15.0246C42.5732 14.7344 41.7996 14.6699 41.0607 14.84L35.8166 16.0446C35.2791 16.1681 34.7207 16.1681 34.1832 16.0446L28.9391 14.84C28.2002 14.6699 27.4266 14.7344 26.7261 15.0246C26.0256 15.3147 25.433 15.816 25.0307 16.4587L22.1724 21.0204C21.8807 21.4871 21.487 21.8808 21.0203 22.1754L16.4586 25.0337C15.817 25.4356 15.3164 26.0273 15.0264 26.7266C14.7363 27.4259 14.6711 28.1982 14.8399 28.9362L16.0445 34.1862C16.1676 34.7227 16.1676 35.2801 16.0445 35.8167L14.8399 41.0637C14.6705 41.8022 14.7353 42.5751 15.0254 43.275C15.3155 43.9749 15.8165 44.5671 16.4586 44.9692L21.0203 47.8275C21.487 48.1192 21.8807 48.5129 22.1753 48.9796L25.0336 53.5412C25.8561 54.8567 27.4253 55.5071 28.9391 55.16L34.1832 53.9554C34.7207 53.8319 35.2791 53.8319 35.8166 53.9554L41.0636 55.16C41.8021 55.3294 42.575 55.2646 43.2749 54.9745C43.9748 54.6844 44.567 54.1834 44.9691 53.5412L47.8274 48.9796C48.1191 48.5129 48.5128 48.1192 48.9795 47.8275L53.5441 44.9692C54.1863 44.5665 54.687 43.9737 54.9766 43.2732C55.2662 42.5727 55.3303 41.7994 55.1599 41.0608L53.9582 35.8167C53.8347 35.2792 53.8347 34.7208 53.9582 34.1833L55.1628 28.9362C55.3325 28.1981 55.2681 27.4254 54.9785 26.7255C54.689 26.0256 54.1886 25.4333 53.547 25.0308L48.9824 22.1725C48.5164 21.8803 48.1225 21.4864 47.8303 21.0204L44.9691 16.4587ZM43.502 28.4958C43.6824 28.1641 43.7271 27.7753 43.6267 27.4113C43.5263 27.0473 43.2886 26.7364 42.9636 26.5441C42.6387 26.3518 42.2518 26.293 41.8844 26.3801C41.5169 26.4672 41.1976 26.6935 40.9936 27.0112L33.3666 39.9204L28.7611 35.5104C28.6245 35.3701 28.461 35.2588 28.2804 35.183C28.0999 35.1073 27.9059 35.0687 27.71 35.0696C27.5142 35.0704 27.3206 35.1107 27.1407 35.188C26.9607 35.2653 26.7982 35.3781 26.6628 35.5196C26.5274 35.661 26.4219 35.8283 26.3526 36.0115C26.2832 36.1946 26.2515 36.3898 26.2592 36.5855C26.2669 36.7812 26.314 36.9733 26.3976 37.1504C26.4812 37.3274 26.5996 37.4859 26.7457 37.6162L32.6782 43.3008C32.837 43.4526 33.028 43.5666 33.237 43.6343C33.4461 43.7019 33.6676 43.7215 33.8853 43.6915C34.1029 43.6614 34.3109 43.5827 34.4938 43.461C34.6767 43.3393 34.8298 43.1779 34.9416 42.9887L43.502 28.4958Z" fill="#292929"/>
</svg>
